<?xml version="1.0" encoding="UTF-8" standalone="no"?><!DOCTYPE svg PUBLIC "-//W3C//DTD SVG 1.1//EN" "http://www.w3.org/Graphics/SVG/1.1/DTD/svg11.dtd"><svg width="100%" height="100%" viewBox="0 0 673 292" version="1.1" xmlns="http://www.w3.org/2000/svg" xmlns:xlink="http://www.w3.org/1999/xlink" xml:space="preserve" xmlns:serif="http://www.serif.com/" style="fill-rule:evenodd;clip-rule:evenodd;stroke-linejoin:round;stroke-miterlimit:2;"><rect id="EBS-Vertical-Final-White" serif:id="EBS Vertical Final White" x="0" y="0" width="673" height="291.763" style="fill:none;"/><g><g><path d="M25.05,150.025l92.531,53.423c3.737,2.158 7.908,3.237 12.079,3.237c0,4.484 0,60.397 0,60.397c-4.171,0 -8.342,-1.079 -12.079,-3.237c-20.132,-11.623 -60.319,-34.825 -80.452,-46.449c-7.474,-4.315 -12.079,-12.291 -12.079,-20.922l0,-46.449Z" style="fill:#6fbf3d;"/><path d="M234.271,150.025l-92.531,53.423c-3.738,2.158 -7.909,3.237 -12.08,3.237c0,4.484 0,60.397 0,60.397c4.171,0 8.342,-1.079 12.08,-3.237c20.132,-11.623 60.319,-34.825 80.452,-46.449c7.474,-4.315 12.079,-12.291 12.079,-20.922l0,-46.449Z" style="fill:#008d6c;"/><path d="M28.287,79.402l89.294,51.554c3.737,2.158 7.908,3.237 12.079,3.237l0,60.397c-4.171,0 -8.342,-1.079 -12.079,-3.237c-27.523,-15.891 -92.531,-53.423 -92.531,-53.423l0,-46.449c0.015,-4.342 1.173,-8.497 3.237,-12.079Z" style="fill:#8bd033;"/><path d="M231.034,79.402l-89.294,51.554c-3.738,2.158 -7.909,3.237 -12.08,3.237l0,60.397c4.171,0 8.342,-1.079 12.08,-3.237c27.523,-15.891 92.531,-53.423 92.531,-53.423l0,-46.449c-0.016,-4.342 -1.173,-8.497 -3.237,-12.079Z" style="fill:#32ab5a;"/><path d="M77.355,47.335l40.226,23.224c3.737,2.158 7.908,3.237 12.079,3.237l0,60.397c-4.171,0 -8.342,-1.079 -12.079,-3.237l-89.294,-51.554c2.085,-3.612 5.105,-6.685 8.842,-8.843l40.226,-23.224Z" style="fill:#99d72d;"/><path d="M181.966,47.335l-40.226,23.224c-3.738,2.158 -7.909,3.237 -12.08,3.237l0,60.397c4.171,0 8.342,-1.079 12.08,-3.237l89.294,-51.554c-2.085,-3.612 -5.105,-6.685 -8.842,-8.843l-40.226,-23.224Z" style="fill:#4bb950;"/><path d="M129.66,73.796c-4.171,0 -8.342,-1.079 -12.079,-3.237l-40.226,-23.224l40.226,-23.225c3.737,-2.157 7.908,-3.236 12.079,-3.236l0,52.922Z" style="fill:#a7e028;"/><path d="M129.66,73.796c4.171,0 8.342,-1.079 12.08,-3.237l40.226,-23.224l-40.226,-23.225c-3.738,-2.157 -7.909,-3.236 -12.08,-3.236l0,52.922Z" style="fill:#64c847;"/></g><g><path d="M319.966,83.47l0,9.675l-39.419,0l0,-56.77l38.7,0l0,9.675l-27.665,0l0,13.673l23.907,0l0,8.955l-23.907,0l0,14.792l28.384,0Z" style="fill:#fff;fill-rule:nonzero;"/><path d="M363.703,93.145l-5.437,0l0,-23.268c0,-4.957 -0.733,-8.555 -2.199,-10.794c-1.466,-2.239 -3.718,-3.358 -6.756,-3.358c-1.6,0 -3.199,0.293 -4.798,0.879c-1.599,0.587 -3.078,1.413 -4.438,2.479c-1.359,1.066 -2.571,2.332 -3.638,3.798c-1.066,1.466 -1.839,3.052 -2.318,4.758l0,25.506l-5.437,0l0,-41.658l4.957,0l0,9.435c1.706,-3.038 4.144,-5.49 7.316,-7.356c3.172,-1.866 6.623,-2.798 10.354,-2.798c2.293,0 4.238,0.426 5.837,1.279c1.599,0.853 2.879,2.052 3.838,3.598c0.96,1.546 1.653,3.438 2.079,5.677c0.427,2.239 0.64,4.717 0.64,7.436l0,24.387Z" style="fill:#fff;fill-rule:nonzero;"/><path d="M394.886,91.146c-0.32,0.16 -0.786,0.373 -1.399,0.64c-0.613,0.266 -1.32,0.533 -2.119,0.799c-0.8,0.267 -1.706,0.507 -2.719,0.72c-1.012,0.213 -2.079,0.32 -3.198,0.32c-1.173,0 -2.292,-0.16 -3.358,-0.48c-1.066,-0.32 -1.999,-0.813 -2.799,-1.479c-0.799,-0.667 -1.439,-1.506 -1.919,-2.519c-0.479,-1.013 -0.719,-2.186 -0.719,-3.518l0,-29.824l-5.757,0l0,-4.318l5.757,0l0,-14.072l5.437,0l0,14.072l9.595,0l0,4.318l-9.595,0l0,28.305c0.106,1.546 0.653,2.678 1.639,3.398c0.986,0.719 2.119,1.079 3.398,1.079c1.546,0 2.905,-0.253 4.078,-0.759c1.173,-0.507 1.919,-0.867 2.239,-1.08l1.439,4.398Z" style="fill:#fff;fill-rule:nonzero;"/><path d="M418.633,93.944c-3.038,0 -5.823,-0.573 -8.355,-1.719c-2.532,-1.146 -4.731,-2.718 -6.597,-4.717c-1.865,-1.999 -3.318,-4.304 -4.357,-6.916c-1.04,-2.612 -1.56,-5.411 -1.56,-8.396c0,-2.932 0.52,-5.69 1.56,-8.275c1.039,-2.586 2.478,-4.851 4.317,-6.797c1.839,-1.945 4.038,-3.491 6.597,-4.637c2.558,-1.146 5.33,-1.719 8.315,-1.719c3.039,0 5.824,0.573 8.356,1.719c2.532,1.146 4.704,2.705 6.516,4.677c1.813,1.972 3.225,4.238 4.238,6.797c1.013,2.558 1.519,5.277 1.519,8.155l0,1.279c0,0.427 -0.026,0.72 -0.08,0.88l-35.661,0c0.16,2.239 0.68,4.304 1.56,6.197c0.879,1.892 2.012,3.531 3.398,4.917c1.386,1.386 2.971,2.465 4.757,3.238c1.786,0.773 3.692,1.16 5.717,1.16c1.333,0 2.665,-0.187 3.998,-0.56c1.333,-0.373 2.559,-0.88 3.678,-1.519c1.119,-0.64 2.132,-1.426 3.038,-2.359c0.907,-0.933 1.6,-1.959 2.079,-3.078l4.718,1.279c-0.64,1.546 -1.546,2.945 -2.719,4.198c-1.173,1.252 -2.532,2.345 -4.078,3.278c-1.545,0.933 -3.251,1.652 -5.117,2.159c-1.866,0.506 -3.811,0.759 -5.837,0.759Zm15.352,-23.827c-0.16,-2.239 -0.68,-4.277 -1.559,-6.116c-0.88,-1.84 -1.999,-3.425 -3.358,-4.758c-1.36,-1.333 -2.932,-2.372 -4.718,-3.118c-1.786,-0.747 -3.691,-1.12 -5.717,-1.12c-2.025,0 -3.944,0.373 -5.757,1.12c-1.812,0.746 -3.398,1.785 -4.757,3.118c-1.359,1.333 -2.452,2.932 -3.278,4.797c-0.827,1.866 -1.32,3.892 -1.48,6.077l30.624,0Z" style="fill:#fff;fill-rule:nonzero;"/><path d="M468.367,56.285c-3.679,0.106 -6.877,1.119 -9.595,3.038c-2.719,1.919 -4.638,4.558 -5.757,7.916l0,25.906l-5.437,0l0,-41.658l5.117,0l0,9.995c1.546,-3.198 3.625,-5.704 6.237,-7.516c2.612,-1.812 5.41,-2.719 8.395,-2.719c0.427,0 0.773,0.027 1.04,0.08l0,4.958Z" style="fill:#fff;fill-rule:nonzero;"/><path d="M496.911,93.944c-3.518,0 -6.623,-0.892 -9.315,-2.678c-2.692,-1.786 -4.864,-4.038 -6.516,-6.757l0,25.667l-5.437,0l0,-58.689l4.877,0l0,8.076c1.706,-2.612 3.918,-4.731 6.636,-6.357c2.719,-1.625 5.677,-2.438 8.876,-2.438c2.878,0 5.517,0.599 7.915,1.799c2.399,1.199 4.478,2.798 6.237,4.797c1.759,1.999 3.132,4.304 4.118,6.916c0.986,2.612 1.479,5.304 1.479,8.076c0,2.932 -0.453,5.704 -1.359,8.316c-0.906,2.611 -2.199,4.904 -3.878,6.876c-1.679,1.972 -3.678,3.531 -5.997,4.677c-2.319,1.146 -4.864,1.719 -7.636,1.719Zm-1.519,-4.797c2.239,0 4.278,-0.48 6.117,-1.439c1.839,-0.96 3.411,-2.226 4.717,-3.798c1.306,-1.573 2.306,-3.358 2.999,-5.357c0.693,-1.999 1.039,-4.065 1.039,-6.197c0,-2.239 -0.4,-4.371 -1.199,-6.397c-0.8,-2.025 -1.893,-3.811 -3.279,-5.357c-1.386,-1.546 -3.025,-2.772 -4.917,-3.678c-1.892,-0.906 -3.931,-1.359 -6.117,-1.359c-1.386,0 -2.838,0.28 -4.357,0.84c-1.52,0.559 -2.932,1.306 -4.238,2.238c-1.306,0.933 -2.425,2.026 -3.358,3.279c-0.933,1.252 -1.506,2.572 -1.719,3.957l0,12.794c0.639,1.492 1.452,2.878 2.438,4.157c0.987,1.28 2.106,2.386 3.359,3.319c1.252,0.932 2.598,1.665 4.037,2.198c1.44,0.533 2.932,0.8 4.478,0.8Z" style="fill:#fff;fill-rule:nonzero;"/><path d="M545.765,56.285c-3.678,0.106 -6.876,1.119 -9.595,3.038c-2.718,1.919 -4.637,4.558 -5.757,7.916l0,25.906l-5.437,0l0,-41.658l5.117,0l0,9.995c1.546,-3.198 3.625,-5.704 6.237,-7.516c2.612,-1.812 5.41,-2.719 8.395,-2.719c0.427,0 0.773,0.027 1.04,0.08l0,4.958Z" style="fill:#fff;fill-rule:nonzero;"/><path d="M553.041,93.145l0,-41.658l5.437,0l0,41.658l-5.437,0Zm0,-50.373l0,-7.996l5.437,0l0,7.996l-5.437,0Z" style="fill:#fff;fill-rule:nonzero;"/><path d="M584.304,93.944c-3.251,0 -6.423,-0.533 -9.515,-1.599c-3.091,-1.066 -5.757,-2.612 -7.995,-4.637l2.478,-3.678c2.346,1.919 4.731,3.358 7.156,4.317c2.426,0.96 5.024,1.44 7.796,1.44c3.358,0 6.037,-0.68 8.036,-2.039c1.999,-1.36 2.998,-3.292 2.998,-5.797c0,-1.173 -0.266,-2.146 -0.799,-2.919c-0.533,-0.772 -1.32,-1.452 -2.359,-2.038c-1.039,-0.587 -2.345,-1.107 -3.918,-1.56c-1.572,-0.453 -3.398,-0.919 -5.477,-1.399c-2.399,-0.586 -4.478,-1.173 -6.237,-1.759c-1.759,-0.586 -3.211,-1.253 -4.357,-1.999c-1.146,-0.746 -1.999,-1.666 -2.559,-2.758c-0.56,-1.093 -0.839,-2.466 -0.839,-4.118c0,-2.079 0.413,-3.918 1.239,-5.517c0.826,-1.599 1.946,-2.919 3.358,-3.958c1.413,-1.04 3.065,-1.826 4.957,-2.359c1.893,-0.533 3.905,-0.799 6.037,-0.799c3.198,0 6.104,0.519 8.716,1.559c2.611,1.039 4.717,2.412 6.316,4.118l-2.638,3.198c-1.546,-1.599 -3.425,-2.799 -5.637,-3.598c-2.213,-0.8 -4.518,-1.2 -6.917,-1.2c-1.439,0 -2.772,0.147 -3.998,0.44c-1.226,0.293 -2.305,0.76 -3.238,1.399c-0.933,0.64 -1.666,1.453 -2.199,2.439c-0.533,0.986 -0.799,2.146 -0.799,3.478c0,1.12 0.186,2.026 0.559,2.719c0.374,0.693 0.987,1.292 1.84,1.799c0.852,0.506 1.932,0.959 3.238,1.359c1.306,0.4 2.892,0.813 4.757,1.239c2.665,0.64 5.011,1.28 7.036,1.919c2.026,0.64 3.718,1.386 5.078,2.239c1.359,0.853 2.385,1.893 3.078,3.119c0.693,1.226 1.039,2.718 1.039,4.477c0,3.838 -1.465,6.876 -4.397,9.115c-2.932,2.239 -6.876,3.358 -11.834,3.358Z" style="fill:#fff;fill-rule:nonzero;"/><path d="M627.401,93.944c-3.038,0 -5.823,-0.573 -8.355,-1.719c-2.532,-1.146 -4.731,-2.718 -6.597,-4.717c-1.866,-1.999 -3.318,-4.304 -4.358,-6.916c-1.039,-2.612 -1.559,-5.411 -1.559,-8.396c0,-2.932 0.52,-5.69 1.559,-8.275c1.04,-2.586 2.479,-4.851 4.318,-6.797c1.839,-1.945 4.038,-3.491 6.597,-4.637c2.558,-1.146 5.33,-1.719 8.315,-1.719c3.038,0 5.824,0.573 8.356,1.719c2.532,1.146 4.704,2.705 6.516,4.677c1.812,1.972 3.225,4.238 4.238,6.797c1.013,2.558 1.519,5.277 1.519,8.155l0,1.279c0,0.427 -0.027,0.72 -0.08,0.88l-35.661,0c0.16,2.239 0.68,4.304 1.559,6.197c0.88,1.892 2.013,3.531 3.399,4.917c1.385,1.386 2.971,2.465 4.757,3.238c1.786,0.773 3.691,1.16 5.717,1.16c1.333,0 2.665,-0.187 3.998,-0.56c1.332,-0.373 2.558,-0.88 3.678,-1.519c1.119,-0.64 2.132,-1.426 3.038,-2.359c0.906,-0.933 1.599,-1.959 2.079,-3.078l4.718,1.279c-0.64,1.546 -1.546,2.945 -2.719,4.198c-1.173,1.252 -2.532,2.345 -4.078,3.278c-1.546,0.933 -3.251,1.652 -5.117,2.159c-1.866,0.506 -3.811,0.759 -5.837,0.759Zm15.352,-23.827c-0.16,-2.239 -0.68,-4.277 -1.559,-6.116c-0.88,-1.84 -1.999,-3.425 -3.359,-4.758c-1.359,-1.333 -2.931,-2.372 -4.717,-3.118c-1.786,-0.747 -3.691,-1.12 -5.717,-1.12c-2.026,0 -3.945,0.373 -5.757,1.12c-1.812,0.746 -3.398,1.785 -4.757,3.118c-1.36,1.333 -2.452,2.932 -3.279,4.797c-0.826,1.866 -1.319,3.892 -1.479,6.077l30.624,0Z" style="fill:#fff;fill-rule:nonzero;"/><path d="M326.283,158.47c0,2.398 -0.48,4.504 -1.439,6.316c-0.96,1.813 -2.279,3.332 -3.958,4.558c-1.679,1.226 -3.625,2.159 -5.837,2.798c-2.212,0.64 -4.571,0.96 -7.076,0.96l-27.426,0l0,-56.77l30.384,0c1.972,0 3.758,0.427 5.357,1.28c1.599,0.853 2.959,1.959 4.078,3.318c1.119,1.359 1.986,2.905 2.599,4.637c0.613,1.733 0.919,3.479 0.919,5.238c0,2.771 -0.693,5.37 -2.079,7.795c-1.386,2.426 -3.411,4.225 -6.076,5.398c3.251,0.959 5.823,2.678 7.715,5.157c1.893,2.478 2.839,5.583 2.839,9.315Zm-11.114,-2.079c0,-1.013 -0.173,-1.986 -0.52,-2.919c-0.346,-0.932 -0.813,-1.745 -1.399,-2.438c-0.586,-0.693 -1.279,-1.24 -2.079,-1.639c-0.8,-0.4 -1.679,-0.6 -2.639,-0.6l-16.95,0l0,14.952l16.391,0c1.013,0 1.959,-0.187 2.838,-0.56c0.88,-0.373 1.639,-0.893 2.279,-1.559c0.64,-0.666 1.146,-1.453 1.519,-2.359c0.373,-0.906 0.56,-1.865 0.56,-2.878Zm-23.587,-30.624l0,14.313l14.712,0c1.865,0 3.451,-0.64 4.757,-1.919c1.306,-1.28 1.959,-3.039 1.959,-5.278c0,-2.185 -0.6,-3.917 -1.799,-5.197c-1.199,-1.279 -2.679,-1.919 -4.438,-1.919l-15.191,0Z" style="fill:#fff;fill-rule:nonzero;"/><path d="M355.787,136.242c-3.678,0.106 -6.876,1.119 -9.595,3.038c-2.718,1.919 -4.637,4.558 -5.757,7.916l0,25.906l-5.437,0l0,-41.658l5.117,0l0,9.995c1.546,-3.198 3.625,-5.704 6.237,-7.516c2.612,-1.812 5.411,-2.719 8.396,-2.719c0.426,0 0.773,0.027 1.039,0.08l0,4.958Z" style="fill:#fff;fill-rule:nonzero;"/><path d="M378.975,173.901c-3.039,0 -5.824,-0.573 -8.356,-1.719c-2.532,-1.146 -4.731,-2.718 -6.596,-4.717c-1.866,-1.999 -3.319,-4.304 -4.358,-6.916c-1.039,-2.612 -1.559,-5.411 -1.559,-8.396c0,-2.932 0.52,-5.69 1.559,-8.275c1.039,-2.586 2.479,-4.851 4.318,-6.797c1.839,-1.945 4.037,-3.491 6.596,-4.637c2.559,-1.146 5.331,-1.719 8.316,-1.719c3.038,0 5.823,0.573 8.355,1.719c2.532,1.146 4.704,2.705 6.517,4.677c1.812,1.972 3.225,4.238 4.237,6.797c1.013,2.558 1.52,5.277 1.52,8.155l0,1.279c0,0.427 -0.027,0.72 -0.08,0.88l-35.661,0c0.16,2.239 0.679,4.304 1.559,6.197c0.879,1.892 2.012,3.531 3.398,4.917c1.386,1.386 2.972,2.465 4.758,3.238c1.785,0.773 3.691,1.16 5.716,1.16c1.333,0 2.666,-0.187 3.998,-0.56c1.333,-0.373 2.559,-0.88 3.678,-1.519c1.12,-0.64 2.132,-1.426 3.039,-2.359c0.906,-0.933 1.599,-1.959 2.079,-3.078l4.717,1.279c-0.64,1.546 -1.546,2.945 -2.719,4.198c-1.172,1.252 -2.531,2.345 -4.077,3.278c-1.546,0.933 -3.252,1.652 -5.118,2.159c-1.865,0.506 -3.811,0.759 -5.836,0.759Zm15.351,-23.827c-0.16,-2.239 -0.679,-4.277 -1.559,-6.116c-0.879,-1.839 -1.999,-3.425 -3.358,-4.758c-1.359,-1.333 -2.932,-2.372 -4.718,-3.118c-1.785,-0.747 -3.691,-1.12 -5.716,-1.12c-2.026,0 -3.945,0.373 -5.757,1.12c-1.813,0.746 -3.399,1.785 -4.758,3.118c-1.359,1.333 -2.452,2.932 -3.278,4.798c-0.826,1.865 -1.319,3.891 -1.479,6.076l30.623,0Z" style="fill:#fff;fill-rule:nonzero;"/><path d="M425.909,173.901c-3.038,0 -5.823,-0.573 -8.355,-1.719c-2.532,-1.146 -4.731,-2.718 -6.597,-4.717c-1.865,-1.999 -3.318,-4.304 -4.357,-6.916c-1.04,-2.612 -1.559,-5.411 -1.559,-8.396c0,-2.932 0.519,-5.69 1.559,-8.275c1.039,-2.586 2.478,-4.851 4.317,-6.797c1.839,-1.945 4.038,-3.491 6.597,-4.637c2.558,-1.146 5.33,-1.719 8.315,-1.719c3.039,0 5.824,0.573 8.356,1.719c2.532,1.146 4.704,2.705 6.516,4.677c1.813,1.972 3.225,4.238 4.238,6.797c1.013,2.558 1.519,5.277 1.519,8.155l0,1.279c0,0.427 -0.026,0.72 -0.08,0.88l-35.66,0c0.159,2.239 0.679,4.304 1.559,6.197c0.879,1.892 2.012,3.531 3.398,4.917c1.386,1.386 2.972,2.465 4.757,3.238c1.786,0.773 3.692,1.16 5.717,1.16c1.333,0 2.665,-0.187 3.998,-0.56c1.333,-0.373 2.559,-0.88 3.678,-1.519c1.119,-0.64 2.132,-1.426 3.038,-2.359c0.907,-0.933 1.6,-1.959 2.079,-3.078l4.718,1.279c-0.64,1.546 -1.546,2.945 -2.719,4.198c-1.172,1.252 -2.532,2.345 -4.078,3.278c-1.545,0.933 -3.251,1.652 -5.117,2.159c-1.865,0.506 -3.811,0.759 -5.837,0.759Zm15.352,-23.827c-0.16,-2.239 -0.68,-4.277 -1.559,-6.116c-0.88,-1.839 -1.999,-3.425 -3.358,-4.758c-1.36,-1.333 -2.932,-2.372 -4.718,-3.118c-1.785,-0.747 -3.691,-1.12 -5.717,-1.12c-2.025,0 -3.944,0.373 -5.757,1.12c-1.812,0.746 -3.398,1.785 -4.757,3.118c-1.359,1.333 -2.452,2.932 -3.278,4.798c-0.826,1.865 -1.32,3.891 -1.479,6.076l30.623,0Z" style="fill:#fff;fill-rule:nonzero;"/><path d="M471.965,173.901c-2.879,0 -5.544,-0.599 -7.996,-1.799c-2.452,-1.199 -4.558,-2.785 -6.317,-4.757c-1.759,-1.972 -3.131,-4.251 -4.118,-6.836c-0.986,-2.586 -1.479,-5.291 -1.479,-8.116c0,-2.932 0.48,-5.717 1.44,-8.356c0.959,-2.638 2.278,-4.944 3.957,-6.916c1.679,-1.972 3.678,-3.531 5.997,-4.677c2.319,-1.146 4.864,-1.719 7.636,-1.719c3.518,0 6.636,0.919 9.355,2.758c2.719,1.839 4.851,4.065 6.397,6.677l0,-25.427l5.437,0l0,51.333c0,1.492 0.639,2.238 1.919,2.238l0,4.798c-0.8,0.16 -1.44,0.24 -1.919,0.24c-1.28,0 -2.399,-0.413 -3.359,-1.24c-0.959,-0.826 -1.439,-1.825 -1.439,-2.998l0,-4.078c-1.652,2.719 -3.891,4.878 -6.716,6.477c-2.825,1.599 -5.757,2.398 -8.795,2.398Zm1.199,-4.797c1.333,0 2.758,-0.267 4.278,-0.8c1.519,-0.533 2.945,-1.266 4.277,-2.198c1.333,-0.933 2.466,-2.026 3.399,-3.279c0.932,-1.252 1.505,-2.598 1.719,-4.037l0,-12.874c-0.533,-1.439 -1.306,-2.785 -2.319,-4.037c-1.013,-1.253 -2.172,-2.359 -3.478,-3.319c-1.306,-0.959 -2.706,-1.705 -4.198,-2.238c-1.493,-0.533 -2.958,-0.8 -4.398,-0.8c-2.238,0 -4.264,0.48 -6.076,1.439c-1.813,0.96 -3.372,2.226 -4.678,3.798c-1.306,1.573 -2.305,3.372 -2.998,5.397c-0.693,2.026 -1.04,4.105 -1.04,6.237c0,2.239 0.4,4.371 1.2,6.397c0.799,2.025 1.892,3.798 3.278,5.317c1.386,1.519 3.025,2.732 4.917,3.638c1.893,0.906 3.931,1.359 6.117,1.359Z" style="fill:#fff;fill-rule:nonzero;"/><path d="M504.587,173.102l0,-41.658l5.437,0l0,41.658l-5.437,0Zm0,-50.373l0,-7.996l5.437,0l0,7.996l-5.437,0Z" style="fill:#fff;fill-rule:nonzero;"/><path d="M557.039,173.102l-5.437,0l0,-23.268c0,-4.957 -0.733,-8.555 -2.199,-10.794c-1.466,-2.239 -3.718,-3.358 -6.756,-3.358c-1.6,0 -3.199,0.293 -4.798,0.88c-1.599,0.586 -3.078,1.412 -4.437,2.478c-1.36,1.066 -2.572,2.332 -3.638,3.798c-1.067,1.466 -1.839,3.052 -2.319,4.758l0,25.506l-5.437,0l0,-41.658l4.957,0l0,9.435c1.706,-3.038 4.144,-5.49 7.316,-7.356c3.172,-1.866 6.623,-2.798 10.355,-2.798c2.292,0 4.237,0.426 5.836,1.279c1.6,0.853 2.879,2.052 3.838,3.598c0.96,1.546 1.653,3.438 2.079,5.677c0.427,2.239 0.64,4.717 0.64,7.436l0,24.387Z" style="fill:#fff;fill-rule:nonzero;"/><path d="M585.344,173.662c-2.879,0 -5.504,-0.6 -7.876,-1.799c-2.372,-1.2 -4.424,-2.786 -6.157,-4.758c-1.732,-1.972 -3.078,-4.238 -4.038,-6.796c-0.959,-2.559 -1.439,-5.197 -1.439,-7.916c0,-2.878 0.467,-5.637 1.399,-8.276c0.933,-2.638 2.253,-4.944 3.958,-6.916c1.706,-1.972 3.745,-3.545 6.117,-4.717c2.372,-1.173 4.997,-1.759 7.876,-1.759c3.571,0 6.663,0.892 9.275,2.678c2.612,1.786 4.85,4.038 6.716,6.757l0,-8.716l4.878,0l0,41.818c0,2.878 -0.547,5.424 -1.64,7.636c-1.092,2.212 -2.558,4.064 -4.397,5.557c-1.839,1.492 -3.998,2.612 -6.477,3.358c-2.478,0.746 -5.104,1.119 -7.876,1.119c-4.797,0 -8.662,-0.853 -11.593,-2.558c-2.932,-1.706 -5.304,-3.998 -7.116,-6.877l3.358,-2.638c1.652,2.665 3.838,4.624 6.556,5.877c2.719,1.252 5.651,1.879 8.795,1.879c2.026,0 3.945,-0.28 5.757,-0.84c1.813,-0.56 3.399,-1.386 4.758,-2.479c1.359,-1.092 2.439,-2.478 3.238,-4.157c0.8,-1.679 1.199,-3.638 1.199,-5.877l0,-8.236c-1.599,2.665 -3.784,4.771 -6.556,6.317c-2.772,1.546 -5.677,2.319 -8.715,2.319Zm1.519,-4.558c1.599,0 3.171,-0.293 4.717,-0.88c1.546,-0.586 2.945,-1.372 4.198,-2.358c1.253,-0.986 2.305,-2.092 3.158,-3.318c0.853,-1.226 1.413,-2.479 1.679,-3.758l0,-12.874c-0.586,-1.492 -1.385,-2.878 -2.398,-4.157c-1.013,-1.28 -2.159,-2.372 -3.438,-3.279c-1.28,-0.906 -2.652,-1.625 -4.118,-2.158c-1.466,-0.533 -2.945,-0.8 -4.438,-0.8c-2.345,0 -4.437,0.493 -6.276,1.479c-1.839,0.986 -3.399,2.279 -4.678,3.878c-1.279,1.599 -2.252,3.412 -2.918,5.437c-0.667,2.026 -1,4.078 -1,6.157c0,2.239 0.4,4.371 1.2,6.397c0.799,2.025 1.905,3.797 3.318,5.317c1.412,1.519 3.051,2.718 4.917,3.598c1.866,0.879 3.891,1.319 6.077,1.319Z" style="fill:#fff;fill-rule:nonzero;"/><path d="M314.369,211.161c-0.373,-0.373 -1.052,-0.879 -2.039,-1.519c-0.986,-0.639 -2.185,-1.266 -3.598,-1.879c-1.412,-0.613 -2.945,-1.132 -4.597,-1.559c-1.653,-0.426 -3.332,-0.64 -5.038,-0.64c-3.038,0 -5.303,0.56 -6.796,1.68c-1.492,1.119 -2.239,2.691 -2.239,4.717c0,1.173 0.28,2.145 0.84,2.918c0.56,0.773 1.372,1.453 2.439,2.039c1.066,0.587 2.412,1.12 4.037,1.599c1.626,0.48 3.505,0.987 5.637,1.52c2.772,0.746 5.291,1.545 7.556,2.398c2.266,0.853 4.185,1.919 5.757,3.199c1.573,1.279 2.785,2.811 3.638,4.597c0.853,1.786 1.28,3.985 1.28,6.597c0,3.038 -0.573,5.637 -1.719,7.795c-1.147,2.159 -2.692,3.905 -4.638,5.238c-1.946,1.332 -4.184,2.305 -6.716,2.918c-2.532,0.613 -5.184,0.92 -7.956,0.92c-4.264,0 -8.476,-0.64 -12.633,-1.919c-4.158,-1.28 -7.889,-3.092 -11.194,-5.438l4.877,-9.514c0.48,0.479 1.346,1.106 2.599,1.879c1.252,0.773 2.732,1.545 4.437,2.318c1.706,0.773 3.598,1.426 5.677,1.959c2.079,0.533 4.211,0.8 6.397,0.8c6.077,0 9.115,-1.946 9.115,-5.837c0,-1.226 -0.347,-2.265 -1.04,-3.118c-0.692,-0.853 -1.679,-1.599 -2.958,-2.239c-1.279,-0.64 -2.825,-1.226 -4.637,-1.759c-1.813,-0.533 -3.838,-1.12 -6.077,-1.759c-2.719,-0.746 -5.077,-1.559 -7.076,-2.439c-1.999,-0.879 -3.665,-1.919 -4.998,-3.118c-1.332,-1.2 -2.332,-2.586 -2.998,-4.158c-0.666,-1.572 -1,-3.451 -1,-5.637c0,-2.878 0.534,-5.437 1.6,-7.676c1.066,-2.239 2.545,-4.104 4.437,-5.597c1.893,-1.492 4.091,-2.625 6.597,-3.398c2.505,-0.773 5.197,-1.159 8.075,-1.159c3.998,0 7.676,0.626 11.034,1.879c3.359,1.252 6.29,2.731 8.796,4.437l-4.878,8.955Z" style="fill:#fff;fill-rule:nonzero;"/><path d="M332.04,265.852c0.426,0.053 0.839,0.093 1.239,0.12c0.4,0.027 0.786,0.04 1.16,0.04c0.959,0 1.719,-0.133 2.278,-0.4c0.56,-0.266 1.106,-0.853 1.639,-1.759c0.533,-0.906 1.133,-2.212 1.799,-3.918c0.667,-1.706 1.613,-3.998 2.839,-6.876l-18.15,-41.658l5.597,0l15.431,36.621l14.313,-36.621l5.197,0l-21.589,53.731c-0.586,1.546 -1.559,2.892 -2.918,4.038c-1.359,1.146 -3.212,1.719 -5.557,1.719c-0.533,0 -1.039,-0.013 -1.519,-0.04c-0.48,-0.026 -1.066,-0.093 -1.759,-0.2l0,-4.797Z" style="fill:#fff;fill-rule:nonzero;"/><path d="M385.851,253.858c-3.252,0 -6.423,-0.533 -9.515,-1.599c-3.092,-1.066 -5.757,-2.612 -7.996,-4.637l2.479,-3.678c2.345,1.919 4.731,3.358 7.156,4.317c2.425,0.96 5.024,1.44 7.796,1.44c3.358,0 6.037,-0.68 8.036,-2.039c1.999,-1.359 2.998,-3.292 2.998,-5.797c0,-1.173 -0.267,-2.146 -0.8,-2.919c-0.533,-0.772 -1.319,-1.452 -2.358,-2.038c-1.04,-0.587 -2.346,-1.107 -3.918,-1.56c-1.573,-0.453 -3.398,-0.919 -5.477,-1.399c-2.399,-0.586 -4.478,-1.173 -6.237,-1.759c-1.759,-0.586 -3.212,-1.253 -4.358,-1.999c-1.146,-0.746 -1.999,-1.666 -2.558,-2.758c-0.56,-1.093 -0.84,-2.466 -0.84,-4.118c0,-2.079 0.413,-3.918 1.24,-5.517c0.826,-1.599 1.945,-2.919 3.358,-3.958c1.412,-1.039 3.065,-1.826 4.957,-2.359c1.892,-0.533 3.905,-0.799 6.037,-0.799c3.198,0 6.103,0.519 8.715,1.559c2.612,1.039 4.718,2.412 6.317,4.118l-2.639,3.198c-1.546,-1.599 -3.425,-2.799 -5.637,-3.598c-2.212,-0.8 -4.517,-1.2 -6.916,-1.2c-1.439,0 -2.772,0.147 -3.998,0.44c-1.226,0.293 -2.305,0.76 -3.238,1.399c-0.933,0.64 -1.666,1.453 -2.199,2.439c-0.533,0.986 -0.8,2.146 -0.8,3.478c0,1.12 0.187,2.026 0.56,2.719c0.373,0.693 0.986,1.292 1.839,1.799c0.853,0.506 1.932,0.959 3.238,1.359c1.306,0.4 2.892,0.813 4.758,1.239c2.665,0.64 5.011,1.28 7.036,1.919c2.026,0.64 3.718,1.386 5.077,2.239c1.36,0.853 2.386,1.893 3.079,3.119c0.693,1.226 1.039,2.718 1.039,4.477c0,3.838 -1.466,6.876 -4.397,9.115c-2.932,2.239 -6.877,3.358 -11.834,3.358Z" style="fill:#fff;fill-rule:nonzero;"/><path d="M430.947,251.06c-0.32,0.16 -0.787,0.373 -1.4,0.64c-0.613,0.266 -1.319,0.533 -2.118,0.799c-0.8,0.267 -1.706,0.507 -2.719,0.72c-1.013,0.213 -2.079,0.32 -3.198,0.32c-1.173,0 -2.292,-0.16 -3.358,-0.48c-1.067,-0.32 -1.999,-0.813 -2.799,-1.479c-0.8,-0.667 -1.439,-1.506 -1.919,-2.519c-0.48,-1.013 -0.72,-2.185 -0.72,-3.518l0,-29.824l-5.756,0l0,-4.318l5.756,0l0,-14.072l5.438,0l0,14.072l9.594,0l0,4.318l-9.594,0l0,28.305c0.106,1.546 0.652,2.678 1.639,3.398c0.986,0.72 2.118,1.079 3.398,1.079c1.546,0 2.905,-0.253 4.078,-0.759c1.172,-0.507 1.919,-0.866 2.238,-1.08l1.44,4.398Z" style="fill:#fff;fill-rule:nonzero;"/><path d="M454.694,253.858c-3.038,0 -5.824,-0.573 -8.356,-1.719c-2.532,-1.146 -4.73,-2.718 -6.596,-4.717c-1.866,-1.999 -3.318,-4.304 -4.358,-6.916c-1.039,-2.612 -1.559,-5.411 -1.559,-8.396c0,-2.932 0.52,-5.69 1.559,-8.275c1.04,-2.586 2.479,-4.851 4.318,-6.797c1.839,-1.945 4.038,-3.491 6.596,-4.637c2.559,-1.146 5.331,-1.719 8.316,-1.719c3.038,0 5.823,0.573 8.355,1.719c2.532,1.146 4.705,2.705 6.517,4.677c1.812,1.972 3.225,4.238 4.238,6.797c1.012,2.558 1.519,5.277 1.519,8.155l0,1.28c0,0.426 -0.027,0.719 -0.08,0.879l-35.661,0c0.16,2.239 0.68,4.304 1.559,6.197c0.88,1.892 2.012,3.531 3.398,4.917c1.386,1.386 2.972,2.465 4.758,3.238c1.786,0.773 3.691,1.16 5.717,1.16c1.332,0 2.665,-0.187 3.998,-0.56c1.332,-0.373 2.558,-0.88 3.678,-1.519c1.119,-0.64 2.132,-1.426 3.038,-2.359c0.906,-0.933 1.599,-1.959 2.079,-3.078l4.717,1.279c-0.639,1.546 -1.546,2.945 -2.718,4.198c-1.173,1.252 -2.532,2.345 -4.078,3.278c-1.546,0.933 -3.252,1.652 -5.117,2.159c-1.866,0.506 -3.812,0.759 -5.837,0.759Zm15.352,-23.827c-0.16,-2.239 -0.68,-4.277 -1.56,-6.116c-0.879,-1.839 -1.998,-3.425 -3.358,-4.758c-1.359,-1.333 -2.931,-2.372 -4.717,-3.118c-1.786,-0.746 -3.692,-1.12 -5.717,-1.12c-2.026,0 -3.945,0.374 -5.757,1.12c-1.812,0.746 -3.398,1.785 -4.757,3.118c-1.36,1.333 -2.452,2.932 -3.279,4.798c-0.826,1.865 -1.319,3.891 -1.479,6.076l30.624,0Z" style="fill:#fff;fill-rule:nonzero;"/><path d="M545.605,253.059l-5.437,0l0,-23.268c0,-4.85 -0.773,-8.422 -2.319,-10.714c-1.546,-2.292 -3.838,-3.438 -6.876,-3.438c-1.599,0 -3.105,0.293 -4.518,0.88c-1.412,0.586 -2.718,1.412 -3.918,2.478c-1.199,1.066 -2.252,2.332 -3.158,3.798c-0.906,1.466 -1.599,3.078 -2.079,4.838l0,25.426l-5.437,0l0,-23.268c0,-4.957 -0.746,-8.555 -2.239,-10.794c-1.492,-2.239 -3.784,-3.358 -6.876,-3.358c-3.145,0 -5.943,1.093 -8.395,3.278c-2.452,2.186 -4.212,5.064 -5.278,8.636l0,25.506l-5.437,0l0,-41.658l4.958,0l0,9.435c1.705,-3.198 3.944,-5.69 6.716,-7.476c2.772,-1.785 5.837,-2.678 9.195,-2.678c3.518,0 6.33,0.986 8.436,2.958c2.105,1.972 3.398,4.558 3.877,7.756c3.892,-7.143 9.249,-10.714 16.072,-10.714c2.345,0 4.331,0.426 5.957,1.279c1.625,0.853 2.931,2.066 3.918,3.638c0.986,1.573 1.705,3.465 2.158,5.677c0.453,2.212 0.68,4.677 0.68,7.396l0,24.387Z" style="fill:#fff;fill-rule:nonzero;"/></g></g></svg>